HIERARCHY
ROOT Hips
{
	OFFSET 0.00 0.00 0.00
	CHANNELS 6 Xposition Yposition Zposition Xrotation Yrotation Zrotation
	JOINT Spine
	{
		OFFSET 0.00000 1.15266 1.72900
		CHANNELS 3 Xrotation Yrotation Zrotation
		JOINT Spine1
		{
			OFFSET 0.00000 0.40032 2.27031
			CHANNELS 3 Xrotation Yrotation Zrotation
			JOINT Spine2
			{
				OFFSET 0.00000 0.20092 2.29656
				CHANNELS 3 Xrotation Yrotation Zrotation
				JOINT Spine3
				{
					OFFSET 0.00000 0.00000 2.30533
					CHANNELS 3 Xrotation Yrotation Zrotation
					JOINT Neck
					{
						OFFSET 0.00000 -0.86449 6.05149
						CHANNELS 3 Xrotation Yrotation Zrotation
						JOINT Head
						{
							OFFSET 0.00000 -0.55043 3.12167
							CHANNELS 3 Xrotation Yrotation Zrotation
							End Site
							{
								OFFSET 0.00000 0.00000 3.73175
							}
						}
					}
					JOINT RightShoulder
					{
						OFFSET -0.78828 -1.31380 4.25672
						CHANNELS 3 Xrotation Yrotation Zrotation
						JOINT RightArm
						{
							OFFSET -3.91513 0.00000 0.00000
							CHANNELS 3 Xrotation Yrotation Zrotation
							JOINT RightForeArm
							{
								OFFSET -6.91491 0.00000 0.00000
								CHANNELS 3 Xrotation Yrotation Zrotation
								JOINT RightHand
								{
									OFFSET -6.09622 0.00000 0.00000
									CHANNELS 3 Xrotation Yrotation Zrotation
									JOINT RightHandEnd
									{
										OFFSET -1.74995 0.00000 0.00000
										CHANNELS 3 Xrotation Yrotation Zrotation
										End Site
										{
											OFFSET -1.74995 0.00000 0.00000
										}
									}
									JOINT RightHandThumb1
									{
										OFFSET -0.69998 -1.16663 -0.46665
										CHANNELS 3 Yrotation Xrotation Zrotation
										End Site
										{
											OFFSET -1.69032 -0.45292 0.00000
										}
									}
								}
							}
						}
					}
					JOINT LeftShoulder
					{
						OFFSET 0.78828 -1.31380 4.25672
						CHANNELS 3 Xrotation Yrotation Zrotation
						JOINT LeftArm
						{
							OFFSET 3.91513 0.00000 0.00000
							CHANNELS 3 Xrotation Yrotation Zrotation
							JOINT LeftForeArm
							{
								OFFSET 6.91491 0.00000 0.00000
								CHANNELS 3 Xrotation Yrotation Zrotation
								JOINT LeftHand
								{
									OFFSET 6.09622 0.00000 0.00000
									CHANNELS 3 Xrotation Yrotation Zrotation
									JOINT LeftHandEnd
									{
										OFFSET 1.74995 0.00000 0.00000
										CHANNELS 3 Xrotation Yrotation Zrotation
										End Site
										{
											OFFSET 1.74995 0.00000 0.00000
										}
									}
									JOINT LeftHandThumb1
									{
										OFFSET 0.69998 -1.16663 -0.46665
										CHANNELS 3 Yrotation Xrotation Zrotation
										End Site
										{
											OFFSET 1.69032 -0.45292 0.00000
										}
									}
								}
							}
						}
					}
				}
			}
		}
	}
	JOINT RightUpLeg
	{
		OFFSET -2.33857 0.00000 -0.68318
		CHANNELS 3 Xrotation Yrotation Zrotation
		JOINT RightLeg
		{
			OFFSET 0.00000 0.00000 -10.74496
			CHANNELS 3 Xrotation Yrotation Zrotation
			JOINT RightFoot
			{
				OFFSET 0.00000 0.00000 -10.93085
				CHANNELS 3 Xrotation Yrotation Zrotation
				JOINT RightToeBase
				{
					OFFSET 0.00000 -4.08727 -1.48765
					CHANNELS 3 Xrotation Yrotation Zrotation
					End Site
					{
						OFFSET 0.00000 -1.89187 -0.00000
					}
				}
			}
		}
	}
	JOINT LeftUpLeg
	{
		OFFSET 2.33857 0.00000 -0.68318
		CHANNELS 3 Xrotation Yrotation Zrotation
		JOINT LeftLeg
		{
			OFFSET 0.00000 0.00000 -10.74496
			CHANNELS 3 Xrotation Yrotation Zrotation
			JOINT LeftFoot
			{
				OFFSET 0.00000 0.00000 -10.93085
				CHANNELS 3 Xrotation Yrotation Zrotation
				JOINT LeftToeBase
				{
					OFFSET 0.00000 -4.08727 -1.48765
					CHANNELS 3 Xrotation Yrotation Zrotation
					End Site
					{
						OFFSET 0.00000 -1.89187 -0.00000
					}
				}
			}
		}
	}
}
MOTION
Frames: 7
Frame Time: 0.008342
 10.0416 20.6154 24.4315 5.9668 2.2902 -36.6750 10.5613 -8.9514 1.4351 7.3133 -5.0232 0.5674 -6.9355 -7.6462 29.5367 -4.9976 1.3171 5.8310 -7.1480 5.7169 -21.8122 0.6001 3.3393 -38.1981 -29.0767 0.6330 16.1150 -0.6125 -36.7812 52.4431 -0.0000 0.0001 81.2409 -22.2870 -20.7101 8.8195 0.0000 0.0000 0.0000 -0.0000 -0.0000 0.0000 -16.6966 9.5346 -3.9381 -16.8496 2.4623 -12.9203 -0.0000 -0.0000 -12.5338 -21.0055 10.0901 -3.1830 0.0000 0.0000 -0.0000 0.0000 0.0000 -0.0000 3.1082 1.3579 -4.9405 26.5294 0.0000 0.0000 -8.5158 -9.2306 -25.9085 5.6561 0.0000 0.0000 -23.2150 -10.4937 7.0173 30.9989 0.0000 0.0000 -10.9708 5.4852 -23.3974 -5.3476 0.0000 -0.0000
 9.9683 20.5120 24.4706 6.2379 2.9561 -35.8491 10.4401 -8.9091 1.3851 7.5016 -5.0422 0.5491 -7.1706 -8.3325 29.6120 -5.0601 1.2756 5.8932 -7.6878 5.8370 -21.8183 0.2719 3.5021 -38.2456 -30.3602 1.1845 15.9949 -2.7804 -39.0189 51.3869 -0.0000 0.0001 81.3707 -23.6782 -20.4042 9.2782 0.0000 0.0000 0.0000 0.0000 0.0000 0.0000 -17.0198 9.9093 -4.0740 -16.6530 0.3258 -13.5182 -0.0000 -0.0000 -14.1230 -19.1373 9.1779 -4.5297 0.0000 -0.0000 -0.0000 0.0000 0.0000 0.0000 3.8493 1.1903 -4.0704 26.2733 0.0000 0.0000 -7.3314 -9.2559 -22.8986 6.2211 0.0000 0.0000 -22.9497 -10.9909 6.5147 30.9859 0.0000 0.0000 -11.0628 5.5162 -23.9207 -5.3179 0.0000 -0.0000
 9.8973 20.4128 24.5097 6.4660 3.5677 -35.1523 10.3379 -8.8307 1.3389 7.6701 -5.0159 0.5382 -7.3567 -8.9703 29.7122 -5.1134 1.2215 5.9760 -8.2262 5.9032 -21.8312 -0.0268 3.6445 -38.2937 -31.5924 1.8378 15.8654 -5.1145 -41.4417 50.0756 -0.0000 0.0001 81.5322 -25.1733 -19.8177 9.6600 0.0000 0.0000 0.0000 0.0000 0.0000 0.0000 -17.2034 10.0884 -4.2223 -16.7339 -1.5499 -14.0622 -0.0000 -0.0000 -15.4292 -17.6158 8.1777 -5.8216 -0.0000 0.0000 0.0000 -0.0000 0.0000 0.0000 4.4908 1.1648 -3.2929 26.0710 0.0000 0.0000 -6.3096 -9.4020 -19.8168 6.6030 0.0000 0.0000 -22.6187 -11.4634 6.1310 30.8608 0.0000 0.0000 -11.1491 5.5508 -24.3814 -5.2737 0.0000 -0.0000
 9.8288 20.3179 24.5482 6.6529 4.1108 -34.5621 10.2538 -8.7133 1.2920 7.8195 -4.9525 0.5317 -7.5045 -9.5455 29.8248 -5.1627 1.1587 6.0759 -8.7615 5.9194 -21.8573 -0.2843 3.7654 -38.3383 -32.8027 2.6025 15.7334 -7.6251 -44.0525 48.4538 -0.0000 0.0001 81.7445 -26.8336 -18.9834 9.9392 0.0000 -0.0000 -0.0000 -0.0000 -0.0000 0.0000 -17.2074 10.0460 -4.3646 -17.1157 -3.1273 -14.5918 -0.0000 -0.0000 -16.4170 -16.4593 7.1284 -7.0242 0.0000 -0.0000 0.0000 -0.0000 -0.0000 0.0000 5.0298 1.2834 -2.6078 25.9197 0.0000 0.0000 -5.4517 -9.7035 -16.7781 6.7660 0.0000 0.0000 -22.2301 -11.8868 5.8352 30.6192 0.0000 0.0000 -11.2228 5.5972 -24.7748 -5.2231 0.0000 -0.0000
 9.7630 20.2269 24.5859 6.7867 4.5827 -34.0541 10.2037 -8.5535 1.2446 7.9465 -4.8527 0.5279 -7.6267 -10.0600 29.9286 -5.2080 1.0896 6.1850 -9.2900 5.8965 -21.8968 -0.4895 3.8622 -38.3765 -33.9970 3.4669 15.6016 -10.3555 -46.8146 46.4738 -0.0000 0.0001 82.0071 -28.7080 -17.9510 10.1153 -0.0000 0.0000 -0.0000 0.0000 -0.0000 0.0000 -17.0126 9.7763 -4.4761 -17.7992 -4.3914 -15.1341 -0.0000 -0.0000 -17.0685 -15.6844 6.0713 -8.1142 -0.0000 0.0000 0.0000 0.0000 0.0000 0.0000 5.4872 1.5449 -2.0250 25.8086 0.0000 0.0000 -4.7377 -10.1733 -13.8923 6.6998 0.0000 0.0000 -21.7745 -12.2354 5.5850 30.2616 0.0000 0.0000 -11.2781 5.6595 -25.0860 -5.1758 0.0000 -0.0000
 9.7007 20.1411 24.6224 6.9002 4.9600 -33.6074 10.1469 -8.3497 1.1910 8.0634 -4.7209 0.5315 -7.7388 -10.5199 30.0059 -5.2524 1.0168 6.2908 -9.8030 5.8495 -21.9477 -0.6392 3.9315 -38.4029 -35.1695 4.4011 15.4832 -13.3814 -49.6587 44.0682 -0.0000 0.0001 82.3155 -30.8239 -16.7810 10.2127 -0.0000 0.0000 -0.0000 -0.0000 -0.0000 0.0000 -16.6076 9.3170 -4.5161 -18.7738 -5.3751 -15.7348 -0.0000 -0.0000 -17.3687 -15.3128 5.0475 -9.0739 0.0000 0.0000 -0.0000 0.0000 0.0000 -0.0000 5.8147 1.9389 -1.5549 25.7555 0.0000 0.0000 -4.1471 -10.7988 -11.2619 6.4179 0.0000 0.0000 -21.3063 -12.4974 5.3483 29.8027 0.0000 0.0000 -11.3033 5.7371 -25.3160 -5.1426 0.0000 -0.0000
 9.6411 20.0618 24.6575 7.0171 5.2674 -33.1982 10.0846 -8.1211 1.1367 8.1698 -4.5928 0.5296 -7.8518 -10.9132 30.0546 -5.2976 0.9486 6.3878 -10.2941 5.7782 -22.0088 -0.7324 3.9775 -38.4222 -36.3159 5.3529 15.3629 -16.7734 -52.4987 41.1952 -0.0000 0.0001 82.6431 -33.1810 -15.5512 10.2653 -0.0000 0.0000 0.0000 -0.0000 0.0000 -0.0000 -16.0483 8.6614 -4.4918 -19.9934 -6.0580 -16.3299 -0.0000 -0.0000 -17.3833 -15.3167 4.0671 -9.8802 0.0000 0.0000 -0.0000 0.0000 -0.0000 -0.0000 6.0167 2.4113 -1.1944 25.7476 0.0000 0.0000 -3.6486 -11.5447 -8.9914 5.9517 0.0000 0.0000 -20.8587 -12.7008 5.0798 29.2807 0.0000 0.0000 -11.3016 5.8306 -25.4684 -5.1302 0.0000 -0.0000
